<?xml version="1.0" encoding="UTF-8" standalone="no"?>
<svg
   xmlns:dc="http://purl.org/dc/elements/1.1/"
   xmlns:cc="http://creativecommons.org/ns#"
   xmlns:rdf="http://www.w3.org/1999/02/22-rdf-syntax-ns#"
   xmlns:svg="http://www.w3.org/2000/svg"
   xmlns="http://www.w3.org/2000/svg"
   xmlns:sodipodi="http://sodipodi.sourceforge.net/DTD/sodipodi-0.dtd"
   xmlns:inkscape="http://www.inkscape.org/namespaces/inkscape"
   version="1.1"
   id="svg2"
   xml:space="preserve"
   width="604.97333"
   height="567.05334"
   viewBox="0 0 604.97333 567.05334"
   sodipodi:docname="5741211.eps"><metadata
     id="metadata8"><rdf:RDF><cc:Work
         rdf:about=""><dc:format>image/svg+xml</dc:format><dc:type
           rdf:resource="http://purl.org/dc/dcmitype/StillImage" /></cc:Work></rdf:RDF></metadata><defs
     id="defs6" /><sodipodi:namedview
     pagecolor="#ffffff"
     bordercolor="#666666"
     borderopacity="1"
     objecttolerance="10"
     gridtolerance="10"
     guidetolerance="10"
     inkscape:pageopacity="0"
     inkscape:pageshadow="2"
     inkscape:window-width="640"
     inkscape:window-height="480"
     id="namedview4" /><g
     id="g10"
     inkscape:groupmode="layer"
     inkscape:label="ink_ext_XXXXXX"
     transform="matrix(1.3333333,0,0,-1.3333333,0,567.05333)"><g
       id="g12"
       transform="scale(0.1)"><path
         d="m 3878.32,3081.06 h -1123.8 v 1171.47 h 1123.8 V 3081.06"
         style="fill:#dadbd8;fill-opacity:1;fill-rule:nonzero;stroke:none"
         id="path14" /><path
         d="M 3802.22,3081.06 H 2678.41 V 4252.53 H 3802.22 V 3081.06"
         style="fill:#fafaf9;fill-opacity:1;fill-rule:nonzero;stroke:none"
         id="path16" /><path
         d="M 2678.76,3081.41 H 3801.87 V 4252.19 H 2678.76 Z m 1123.8,-0.7 h -1124.5 v 1172.17 h 1124.5 V 3080.71"
         style="fill:#dadbd8;fill-opacity:1;fill-rule:nonzero;stroke:none"
         id="path18" /><path
         d="m 3651.15,3238.54 h -821.66 v 856.51 h 821.66 v -856.51"
         style="fill:#ffffff;fill-opacity:1;fill-rule:nonzero;stroke:none"
         id="path20" /><path
         d="m 2829.49,3232.85 c 0.64,-0.77 -7.16,-9.73 -20.29,-23.58 -13.11,-13.85 -31.56,-32.59 -52.22,-52.95 -20.68,-20.37 -39.67,-38.5 -53.68,-51.38 -14.02,-12.88 -23.04,-20.49 -23.75,-19.78 -0.71,0.72 7.05,9.63 20.17,23.48 13.12,13.84 31.61,32.63 52.35,53.05 20.73,20.42 39.76,38.6 53.77,51.47 14.02,12.88 22.99,20.45 23.65,19.69"
         style="fill:#dadbd8;fill-opacity:1;fill-rule:nonzero;stroke:none"
         id="path22" /><path
         d="m 3651.15,3234.95 c 0.77,0.64 9.72,-7.16 23.57,-20.28 13.85,-13.12 32.59,-31.56 52.95,-52.23 20.37,-20.67 38.51,-39.67 51.39,-53.68 12.87,-14.01 20.49,-23.03 19.77,-23.75 -0.71,-0.7 -9.63,7.05 -23.47,20.17 -13.85,13.12 -32.64,31.62 -53.06,52.35 -20.41,20.73 -38.59,39.77 -51.48,53.78 -12.87,14.01 -20.43,22.99 -19.67,23.64"
         style="fill:#dadbd8;fill-opacity:1;fill-rule:nonzero;stroke:none"
         id="path24" /><path
         d="m 3648.9,4092.77 c -0.64,0.77 7.16,9.72 20.27,23.57 13.13,13.86 31.57,32.59 52.24,52.95 20.67,20.37 39.67,38.51 53.67,51.39 14.02,12.87 23.04,20.48 23.75,19.77 0.71,-0.72 -7.04,-9.63 -20.16,-23.47 -13.13,-13.85 -31.61,-32.64 -52.35,-53.05 -20.73,-20.43 -39.77,-38.61 -53.78,-51.48 -14.01,-12.88 -22.99,-20.45 -23.64,-19.68"
         style="fill:#dadbd8;fill-opacity:1;fill-rule:nonzero;stroke:none"
         id="path26" /><path
         d="m 2827.23,4090.67 c -0.76,-0.65 -9.73,7.15 -23.57,20.27 -13.85,13.12 -32.59,31.56 -52.95,52.23 -20.36,20.68 -38.51,39.67 -51.38,53.68 -12.88,14.01 -20.5,23.04 -19.77,23.74 0.71,0.72 9.61,-7.04 23.46,-20.16 13.86,-13.12 32.64,-31.61 53.06,-52.34 20.42,-20.73 38.6,-39.78 51.47,-53.79 12.88,-14.01 20.45,-22.98 19.68,-23.63"
         style="fill:#dadbd8;fill-opacity:1;fill-rule:nonzero;stroke:none"
         id="path28" /><path
         d="m 3648.9,3238.54 c -0.06,0.06 -0.12,1.46 -0.17,4.16 -0.05,2.92 -0.11,6.86 -0.19,11.96 -0.09,10.73 -0.21,26.18 -0.37,46.23 -0.19,40.58 -0.47,99.61 -0.83,174.56 -0.39,150.02 -0.94,363.73 -1.61,619.6 l 3.17,-3.17 c -239.2,-0.13 -520.11,-0.29 -819.33,-0.47 h -0.08 l 3.63,3.64 c -0.19,-314.37 -0.36,-608.48 -0.51,-856.51 l -3.12,3.12 c 245.53,-0.66 449.97,-1.21 593.31,-1.59 71.6,-0.35 127.94,-0.63 166.65,-0.82 19.12,-0.15 33.84,-0.28 44.09,-0.36 4.84,-0.07 8.6,-0.14 11.4,-0.18 2.56,-0.05 3.9,-0.11 3.96,-0.17 0.06,-0.06 -1.16,-0.12 -3.62,-0.18 -2.72,-0.04 -6.35,-0.09 -11.06,-0.17 -10.1,-0.09 -24.63,-0.21 -43.49,-0.36 -38.55,-0.19 -94.64,-0.47 -165.95,-0.82 -143.81,-0.39 -348.94,-0.94 -595.29,-1.6 l -3.13,-0.01 v 3.14 c -0.14,248.03 -0.33,542.14 -0.52,856.51 v 3.64 h 3.65 0.08 c 299.22,-0.17 580.13,-0.33 819.33,-0.47 h 3.17 v -3.17 c -0.67,-256.71 -1.22,-471.12 -1.61,-621.62 -0.36,-74.65 -0.64,-133.45 -0.84,-173.85 -0.15,-19.79 -0.27,-35.03 -0.36,-45.63 -0.08,-4.95 -0.13,-8.77 -0.18,-11.61 -0.06,-2.58 -0.12,-3.86 -0.18,-3.8"
         style="fill:#dadbd8;fill-opacity:1;fill-rule:nonzero;stroke:none"
         id="path30" /><path
         d="m 3377.41,3529.71 h -274.18 v 274.18 h 274.18 v -274.18"
         style="fill:#e7e8e5;fill-opacity:1;fill-rule:nonzero;stroke:none"
         id="path32" /><path
         d="m 4069.72,1155.15 c 61.27,31.61 133.41,35.72 201.42,24.47 36.54,-6.04 74.63,-16.97 99.5,-44.42 24.86,-27.45 29.57,-75.75 1.02,-99.33 -17,-14.04 -40.7,-16.16 -62.74,-15.91 -53.23,0.62 -112.31,9.99 -154.85,-22.038 -24.27,-18.281 -40.42,-48.66 -69.44,-57.66 -28.39,-8.793 -60.42,7.957 -75.48,33.59 -15.04,25.609 -15.54,57.638 -8.53,86.508 0,0 7.39,62.94 69.1,94.79"
         style="fill:#e7e8e5;fill-opacity:1;fill-rule:nonzero;stroke:none"
         id="path34" /><path
         d="m 3929.37,1426.09 c 37.46,-53.49 110.26,-35.78 144.02,-3.13 33.76,32.66 48.03,80 61.02,125.13 29.68,103.13 59.6,211.32 37.53,316.34 -6.59,31.4 -18.33,62.71 -40.4,86 -22.06,23.3 -55.99,37.16 -87,28.95 -36.72,-9.69 -59.54,-45.64 -76.03,-79.85 -48.47,-100.54 -74.13,-211.99 -74.51,-323.61 -0.19,-52.12 5.97,-106.79 35.37,-149.83"
         style="fill:#e7e8e5;fill-opacity:1;fill-rule:nonzero;stroke:none"
         id="path36" /><path
         d="m 3818.49,1194.33 c 40.67,48.28 48.39,118.68 30.29,179.16 -18.09,60.47 -58.99,111.91 -106.11,153.91 -55.24,49.25 -120.19,87.57 -190.01,112.12 -27.48,9.66 -56.45,17.29 -85.45,14.51 -28.99,-2.76 -58.19,-17.59 -71.72,-43.39 -20,-38.13 -0.82,-84.39 19.91,-122.14 36.54,-66.48 78.32,-130.09 124.81,-190.03 37.4,-48.24 80.25,-95.81 137.27,-117.6 57.01,-21.8 116.23,-19.23 146.44,20.3"
         style="fill:#e7e8e5;fill-opacity:1;fill-rule:nonzero;stroke:none"
         id="path38" /><path
         d="m 3926.83,619 c 0.7,-0.039 1.84,8.629 3.39,24.32 1.72,17.692 3.89,39.91 6.45,66.348 3.1,27.922 7.17,61.141 14.94,97.312 7.72,36.098 19.82,75.211 35.37,114.86 16.09,39.441 35.71,75.281 58.65,103.94 22.77,28.79 49.26,49.63 74.15,61.65 24.81,12.26 47.07,17.23 62.45,19.44 15.51,1.6 24.2,2.82 24.21,3.51 0,0.69 -8.7,0.8 -24.64,0.38 -15.78,-1.05 -38.96,-5.06 -65.12,-16.95 -26.23,-11.63 -54.32,-32.8 -78.22,-62.18 -24.07,-29.27 -44.41,-65.9 -60.79,-106.028 -15.81,-40.364 -27.73,-79.872 -35.13,-116.731 -7.36,-36.82 -10.73,-70.402 -12.94,-98.562 -2.1,-28.168 -2.9,-50.981 -3.28,-66.758 -0.35,-15.77 -0.17,-24.512 0.51,-24.551"
         style="fill:#dadbd8;fill-opacity:1;fill-rule:nonzero;stroke:none"
         id="path40" /><path
         d="m 3931.4,670.059 c 0.35,0.019 0.57,3.89 0.66,11.281 -0.02,8.469 -0.05,19.16 -0.09,32.262 -0.08,27.988 -0.06,68.507 1.43,118.539 2.48,100.058 11.1,207.729 27.74,359.559 15.76,142.75 36.9,308.88 59.23,416.9 4.78,24.57 9.61,46.68 14.14,66.03 4.32,19.4 8.02,36.13 11.59,49.67 3.06,12.73 5.55,23.11 7.54,31.35 1.61,7.2 2.3,11.04 1.97,11.14 -0.33,0.08 -1.68,-3.56 -3.93,-10.59 -2.45,-8.12 -5.55,-18.35 -9.36,-30.91 -4.15,-13.41 -8.41,-30.03 -13.27,-49.35 -5.06,-19.28 -10.38,-41.33 -15.63,-65.86 -22.08,-97.87 -45.46,-234.67 -62.26,-386.85 -16.67,-152.13 -24.18,-290.652 -24.85,-390.968 -0.59,-50.141 0.47,-90.75 1.75,-118.762 0.8,-13.102 1.46,-23.762 1.97,-32.238 0.57,-7.364 1.03,-11.223 1.37,-11.203"
         style="fill:#dadbd8;fill-opacity:1;fill-rule:nonzero;stroke:none"
         id="path42" /><path
         d="m 3924.07,782.23 c 0.69,0.02 0.57,12 -0.24,33.7 -1.24,21.66 -4.22,52.961 -10.32,91.3 -6.46,38.25 -15.5,83.668 -29.69,133.01 -6.15,22.57 -20.61,76.62 -55.62,157.41 -46.14,109.45 -108.83,198.93 -163.36,254.36 -12.79,14.71 -27.03,25.32 -38.43,35.71 -5.9,4.99 -11.1,9.96 -16.42,13.9 -5.34,3.68 -10.3,7.1 -14.91,10.28 -17.94,12.27 -28,18.74 -28.37,18.16 -1.61,-2.19 40.21,-26.79 93,-82.96 52.58,-56.05 113.51,-144.91 159.27,-253.44 25.53,-58.87 43.32,-111.38 55.95,-155.96 14.59,-48.86 24.27,-93.821 31.59,-131.688 6.96,-37.953 10.98,-68.942 13.42,-90.403 2,-21.488 3.44,-33.398 4.13,-33.379"
         style="fill:#dadbd8;fill-opacity:1;fill-rule:nonzero;stroke:none"
         id="path44" /><path
         d="m 3673.84,465.941 26.77,-366.7691 h 471.17 l 26.78,366.7691 h -524.72"
         style="fill:#dadbd8;fill-opacity:1;fill-rule:nonzero;stroke:none"
         id="path46" /><path
         d="M 3628.32,610.512 V 465.941 h 626.46 v 144.571 h -626.46"
         style="fill:#dadbd8;fill-opacity:1;fill-rule:nonzero;stroke:none"
         id="path48" /><path
         d="M 3628.32,113.199 V 73.1289 h 616.11 v 40.0701 h -616.11"
         style="fill:#e7e8e5;fill-opacity:1;fill-rule:nonzero;stroke:none"
         id="path50" /><path
         d="m 3686.62,2.60938 -28.85,70.51952 h 564.22 L 4188.32,2.60938 h -501.7"
         style="fill:#dadbd8;fill-opacity:1;fill-rule:nonzero;stroke:none"
         id="path52" /><path
         d="m 4189.81,346.07 c 0.11,-0.082 -0.65,-1.23 -2.2,-3.371 -1.86,-2.48 -4.19,-5.551 -7.04,-9.34 -6.69,-8.558 -15.89,-20.32 -27.45,-35.121 l -1.21,-1.558 -1.19,1.629 c -17.25,23.859 -40.3,55.73 -67.43,93.261 h 3.87 c -20.06,-28.398 -42.39,-60.039 -66.38,-94 l -2.08,-2.949 -2.34,2.77 c -24.5,29.148 -51.1,60.808 -78.73,93.679 l 4.53,0.059 c -1.36,-1.719 -2.84,-3.578 -4.32,-5.449 -24.43,-30.61 -48.06,-60.231 -70.41,-88.258 l -2.35,-2.942 -2.17,3.071 c -23.89,33.82 -46.23,65.41 -66.42,93.98 l 3.87,-0.179 c -32.74,-37.301 -60.5,-68.93 -81.81,-93.211 l -1.46,-1.661 -1.1,1.872 c -10.78,18.109 -19.38,32.566 -25.61,43.039 -2.68,4.66 -4.85,8.441 -6.58,11.449 -1.44,2.621 -2.13,4 -2.01,4.09 0.13,0.07 1.07,-1.16 2.75,-3.641 1.91,-2.891 4.31,-6.519 7.27,-11.027 6.54,-10.274 15.57,-24.461 26.89,-42.242 l -2.56,0.199 c 20.96,24.57 48.29,56.601 80.5,94.351 l 2.03,2.371 1.83,-2.562 c 20.37,-28.43 42.9,-59.891 67.02,-93.559 l -4.51,0.129 c 22.3,28.051 45.87,57.731 70.24,88.379 1.48,1.883 2.97,3.742 4.33,5.453 l 2.24,2.821 2.3,-2.762 c 27.55,-32.942 54.09,-64.66 78.52,-93.86 l -4.4,-0.179 c 24.22,33.801 46.78,65.269 67.05,93.527 l 1.96,2.754 1.92,-2.754 c 26.56,-37.93 49.12,-70.148 66.01,-94.269 l -2.4,0.07 c 12.03,14.422 21.59,25.883 28.55,34.23 3.11,3.59 5.62,6.5 7.65,8.852 1.76,1.969 2.72,2.949 2.83,2.859"
         style="fill:#f3f2f1;fill-opacity:1;fill-rule:nonzero;stroke:none"
         id="path54" /><path
         d="m 4205.11,468.359 c 0,-1.621 -118.05,-2.929 -263.66,-2.929 -145.65,0 -263.69,1.308 -263.69,2.929 0,1.621 118.04,2.93 263.69,2.93 145.61,0 263.66,-1.309 263.66,-2.93"
         style="fill:#f3f2f1;fill-opacity:1;fill-rule:nonzero;stroke:none"
         id="path56" /><path
         d="m 4228.92,69.1797 c 0,-1.6094 -128.31,-2.9297 -286.55,-2.9297 -158.3,0 -286.58,1.3203 -286.58,2.9297 0,1.6211 128.28,2.9414 286.58,2.9414 158.24,0 286.55,-1.3203 286.55,-2.9414"
         style="fill:#f3f2f1;fill-opacity:1;fill-rule:nonzero;stroke:none"
         id="path58" /><path
         d="M 177.652,441.309 V 5.78125 H 1517.02 V 441.309 H 177.652"
         style="fill:#f3f2f1;fill-opacity:1;fill-rule:nonzero;stroke:none"
         id="path60" /><path
         d="M 121.453,563.078 V 441.309 H 1563.85 V 563.078 H 814.551 121.453"
         style="fill:#dadbd8;fill-opacity:1;fill-rule:nonzero;stroke:none"
         id="path62" /><path
         d="M 842.652,5.78125 H 1517.02 V 441.309 h 46.83 V 563.078 H 814.551 v -110.5 L 842.652,5.78125"
         style="fill:#dadbd8;fill-opacity:1;fill-rule:nonzero;stroke:none"
         id="path64" /><path
         d="m 364.977,371.07 v -65.55 h 271.617 v 65.55 H 364.977"
         style="fill:#dadbd8;fill-opacity:1;fill-rule:nonzero;stroke:none"
         id="path66" /><path
         d="M 678.793,85.1211 H 330.02 V 223.551 H 678.793 V 85.1211"
         style="fill:#ffffff;fill-opacity:1;fill-rule:nonzero;stroke:none"
         id="path68" /><path
         d="M 383.715,998.02 V 562.5 H 1723.08 V 998.02 H 383.715"
         style="fill:#f3f2f1;fill-opacity:1;fill-rule:nonzero;stroke:none"
         id="path70" /><path
         d="M 327.52,1119.78 V 998.02 h 1442.39 v 121.76 h -749.3 -693.09"
         style="fill:#dadbd8;fill-opacity:1;fill-rule:nonzero;stroke:none"
         id="path72" /><path
         d="m 1048.72,562.5 h 674.36 v 435.52 h 46.83 v 121.76 h -749.3 v -110.49 l 28.11,-446.79"
         style="fill:#dadbd8;fill-opacity:1;fill-rule:nonzero;stroke:none"
         id="path74" /><path
         d="M 571.035,927.781 V 862.23 h 271.621 v 65.551 H 571.035"
         style="fill:#dadbd8;fill-opacity:1;fill-rule:nonzero;stroke:none"
         id="path76" /><path
         d="M 884.852,641.828 H 536.078 V 780.262 H 884.852 V 641.828"
         style="fill:#ffffff;fill-opacity:1;fill-rule:nonzero;stroke:none"
         id="path78" /><path
         d="M 4537.32,2.60938 C 4537.32,1.17188 3521.53,0 2268.77,0 1015.58,0 0,1.17188 0,2.60938 c 0,1.42968 1015.58,2.60156 2268.77,2.60156 1252.76,0 2268.55,-1.17188 2268.55,-2.60156"
         style="fill:#17282f;fill-opacity:1;fill-rule:nonzero;stroke:none"
         id="path80" /><path
         d="M 1765.11,770.59 594.82,771.281 C 454.066,771.352 340.016,883.469 340.039,1021.71 l 0.555,2881.7 c 0.027,138.33 114.242,250.42 255.074,250.34 l 1170.302,-0.68 c 140.75,-0.08 254.8,-112.19 245.07,-250.44 l -0.55,-2881.71 C 2020.16,882.602 1905.95,770.5 1765.11,770.59"
         style="fill:#17282f;fill-opacity:1;fill-rule:nonzero;stroke:none"
         id="path82" /><path
         d="m 1766.6,4070.59 -226.9,0.13 c -30.42,0.01 -55.1,-25.76 -55.1,-57.56 l -0.02,-41.16 c 0,-31.81 -24.67,-57.59 -55.1,-57.57 l -442.277,0.26 c -30.426,0.02 -55.094,25.82 -55.09,57.63 l 0.012,41.16 c 0.004,31.81 -24.66,57.61 -55.09,57.63 l -79.801,0.05 -198.593,0.11 c -98.625,0.06 -178.618,-79.86 -178.637,-178.5 L 419.441,1029.02 C 419.426,930.43 499.297,850.5 597.875,850.441 L 1765.83,849.75 c 98.63,-0.051 178.62,79.879 178.64,178.51 l 0.56,2863.76 c 0.02,98.57 -79.85,178.51 -178.43,178.57"
         style="fill:#f2575d;fill-opacity:1;fill-rule:nonzero;stroke:none"
         id="path84" /><path
         d="m 1833.33,3740.95 c 0.01,-0.82 -31.47,-1.75 -70.31,-2.06 -38.85,-0.33 -70.34,0.07 -70.34,0.9 -0.01,0.82 31.47,1.74 70.32,2.06 38.83,0.32 70.33,-0.08 70.33,-0.9"
         style="fill:#ffffff;fill-opacity:1;fill-rule:nonzero;stroke:none"
         id="path86" /><path
         d="m 1833.63,3704.96 c 0.01,-0.82 -31.48,-1.74 -70.31,-2.07 -38.85,-0.32 -70.34,0.09 -70.35,0.91 -0.01,0.82 31.47,1.74 70.33,2.06 38.83,0.32 70.33,-0.08 70.33,-0.9"
         style="fill:#ffffff;fill-opacity:1;fill-rule:nonzero;stroke:none"
         id="path88" /><path
         d="m 1833.93,3668.97 c 0.01,-0.82 -31.48,-1.74 -70.32,-2.06 -38.84,-0.32 -70.33,0.07 -70.34,0.89 -0.01,0.83 31.47,1.75 70.32,2.07 38.84,0.33 70.33,-0.08 70.34,-0.9"
         style="fill:#ffffff;fill-opacity:1;fill-rule:nonzero;stroke:none"
         id="path90" /><path
         d="m 554.293,3626.71 c 0.051,0.06 1.055,0.12 2.926,0.2 2.301,0.07 4.972,0.16 8.133,0.27 7.675,0.18 17.714,0.42 30.035,0.71 l -0.836,-0.84 c -0.102,6.65 -0.227,13.93 -0.352,21.77 0.043,4.05 -0.347,7.87 0.047,12.54 0.813,4.66 4.969,8.78 10.078,9.26 4.84,0.1 9.106,0.32 14.348,0.07 5.414,-0.66 10.016,-5.86 9.851,-11.59 0.114,-10.16 0.239,-20.77 0.36,-31.77 l -1.395,1.37 c 12.164,0.12 24.836,0.25 37.887,0.39 l -1.441,-1.47 c -0.129,15.26 -0.274,31.04 -0.418,47.21 -0.036,4.03 -0.071,8.04 -0.102,12.02 -0.016,3.7 -2.273,6.19 -5.328,8.95 -5.606,5.53 -11.129,10.98 -16.563,16.33 -5.425,5.35 -10.753,10.61 -15.976,15.76 -2.609,2.58 -5.192,5.13 -7.742,7.65 -2.664,2.57 -4.754,5.22 -7.84,5.85 -2.988,0.81 -6.285,0.17 -8.692,-1.66 -2.293,-1.94 -4.742,-4.68 -7.05,-6.93 -4.664,-4.71 -9.2,-9.28 -13.594,-13.72 -8.555,-8.88 -17.461,-16.99 -23.934,-24.66 -2.73,-4.24 -1.711,-9.42 -1.906,-14.14 -0.008,-4.7 -0.019,-9.15 -0.027,-13.35 -0.051,-8.19 -0.094,-15.36 -0.133,-21.5 -0.063,-5.5 -0.113,-10.04 -0.156,-13.75 -0.055,-3.18 -0.11,-4.89 -0.18,-4.97 -0.074,-0.07 -0.156,1.5 -0.262,4.56 -0.105,3.66 -0.226,8.13 -0.379,13.54 -0.14,6.19 -0.304,13.42 -0.488,21.67 -0.078,4.29 -0.168,8.83 -0.254,13.62 -0.035,2.42 -0.078,4.9 -0.117,7.45 -0.02,2.69 0.676,5.46 2.094,7.93 7.004,8.59 15.371,16.19 23.992,25.32 4.351,4.47 8.855,9.08 13.484,13.83 2.434,2.38 4.418,4.75 7.309,7.25 3.031,2.32 7.191,3.16 10.992,2.16 4.027,-0.89 6.649,-4.2 9.094,-6.51 2.566,-2.51 5.152,-5.05 7.777,-7.62 5.238,-5.13 10.586,-10.37 16.024,-15.71 5.445,-5.34 10.984,-10.78 16.597,-16.29 1.332,-1.41 2.934,-2.61 4.235,-4.59 1.222,-1.89 1.925,-4.12 1.988,-6.38 0.031,-4.01 0.07,-8.03 0.105,-12.09 0.121,-16.17 0.239,-31.95 0.36,-47.21 l 0.011,-1.45 -1.457,-0.01 c -13.05,-0.09 -25.718,-0.16 -37.882,-0.24 l -1.387,-0.01 -0.012,1.38 c -0.058,11 -0.109,21.61 -0.164,31.76 0.16,4.58 -3.398,8.62 -7.656,9.2 -4.356,0.23 -9.496,0.08 -13.742,0.04 -4.071,-0.33 -7.469,-3.6 -8.168,-7.36 -0.367,-3.81 -0.082,-8.25 -0.16,-12.11 0,-7.84 0.003,-15.12 0.003,-21.78 v -0.85 h -0.835 c -12.524,0.09 -22.727,0.16 -30.532,0.22 -3.09,0.05 -5.699,0.1 -7.953,0.14 -1.777,0.04 -2.672,0.09 -2.617,0.14"
         style="fill:#ffffff;fill-opacity:1;fill-rule:nonzero;stroke:none"
         id="path92" /><path
         d="m 1099.24,1319.65 c -84.95,84.95 -84.95,222.68 0,307.63 84.95,84.96 222.69,84.96 307.64,0 84.95,-84.95 84.95,-222.68 0,-307.63 -84.95,-84.95 -222.69,-84.95 -307.64,0"
         style="fill:#ffffff;fill-opacity:1;fill-rule:nonzero;stroke:none"
         id="path94" /><path
         d="m 1119.64,1423.41 54.33,12.78 c 6.7,1.57 11.44,7.56 11.44,14.44 v 11.2 c 0,0 -2.34,19.02 15.61,20.21 12.86,0.85 94.58,0 94.58,0 0,0 21.49,0.41 21.11,-16.53 v -16.27 c 0,-5.61 3.68,-10.55 9.04,-12.17 l 58.91,-17.81 c 6.26,-1.9 12.93,1.27 15.42,7.3 l 7.53,18.16 c 1.37,3.34 2.05,6.9 1.87,10.5 -0.36,7.11 -3.11,18.24 -10.12,27.23 -11.69,14.97 -66.75,50.37 -171.77,45.27 -100.01,-4.84 -121.81,-47.01 -127.54,-57.08 -3.57,-6.27 -4.64,-21.59 -1.87,-28.08 1.02,-2.4 2.71,-6.44 4.36,-10.4 2.79,-6.71 10.03,-10.42 17.1,-8.75"
         style="fill:#f2575d;fill-opacity:1;fill-rule:nonzero;stroke:none"
         id="path96" /><path
         d="m 1253.06,2019.79 c -83.21,0 -150.66,67.46 -150.66,150.66 0,83.21 67.45,150.66 150.66,150.66 83.2,0 150.66,-67.45 150.66,-150.66 0,-83.2 -67.46,-150.66 -150.66,-150.66"
         style="fill:#f46f77;fill-opacity:1;fill-rule:nonzero;stroke:none"
         id="path98" /><path
         d="m 1229.41,2170.24 c 0,-9.67 -7.85,-17.53 -17.53,-17.53 -9.68,0 -17.53,7.86 -17.53,17.53 0,9.69 7.85,17.53 17.53,17.53 9.68,0 17.53,-7.84 17.53,-17.53"
         style="fill:#ffffff;fill-opacity:1;fill-rule:nonzero;stroke:none"
         id="path100" /><path
         d="m 1270.59,2170.24 c 0,-9.67 -7.85,-17.53 -17.53,-17.53 -9.68,0 -17.53,7.86 -17.53,17.53 0,9.69 7.85,17.53 17.53,17.53 9.68,0 17.53,-7.84 17.53,-17.53"
         style="fill:#ffffff;fill-opacity:1;fill-rule:nonzero;stroke:none"
         id="path102" /><path
         d="m 1311.77,2170.24 c 0,-9.67 -7.85,-17.53 -17.53,-17.53 -9.68,0 -17.53,7.86 -17.53,17.53 0,9.69 7.85,17.53 17.53,17.53 9.68,0 17.53,-7.84 17.53,-17.53"
         style="fill:#ffffff;fill-opacity:1;fill-rule:nonzero;stroke:none"
         id="path104" /><path
         d="m 1229.41,2212.06 c 0,-9.67 -7.85,-17.53 -17.53,-17.53 -9.68,0 -17.53,7.86 -17.53,17.53 0,9.69 7.85,17.53 17.53,17.53 9.68,0 17.53,-7.84 17.53,-17.53"
         style="fill:#ffffff;fill-opacity:1;fill-rule:nonzero;stroke:none"
         id="path106" /><path
         d="m 1270.59,2212.06 c 0,-9.67 -7.85,-17.53 -17.53,-17.53 -9.68,0 -17.53,7.86 -17.53,17.53 0,9.69 7.85,17.53 17.53,17.53 9.68,0 17.53,-7.84 17.53,-17.53"
         style="fill:#ffffff;fill-opacity:1;fill-rule:nonzero;stroke:none"
         id="path108" /><path
         d="m 1311.77,2212.06 c 0,-9.67 -7.85,-17.53 -17.53,-17.53 -9.68,0 -17.53,7.86 -17.53,17.53 0,9.69 7.85,17.53 17.53,17.53 9.68,0 17.53,-7.84 17.53,-17.53"
         style="fill:#ffffff;fill-opacity:1;fill-rule:nonzero;stroke:none"
         id="path110" /><path
         d="m 1229.41,2128.84 c 0,-9.69 -7.85,-17.53 -17.53,-17.53 -9.68,0 -17.53,7.84 -17.53,17.53 0,9.67 7.85,17.53 17.53,17.53 9.68,0 17.53,-7.86 17.53,-17.53"
         style="fill:#ffffff;fill-opacity:1;fill-rule:nonzero;stroke:none"
         id="path112" /><path
         d="m 1270.59,2128.84 c 0,-9.69 -7.85,-17.53 -17.53,-17.53 -9.68,0 -17.53,7.84 -17.53,17.53 0,9.67 7.85,17.53 17.53,17.53 9.68,0 17.53,-7.86 17.53,-17.53"
         style="fill:#ffffff;fill-opacity:1;fill-rule:nonzero;stroke:none"
         id="path114" /><path
         d="m 1311.77,2128.84 c 0,-9.69 -7.85,-17.53 -17.53,-17.53 -9.68,0 -17.53,7.84 -17.53,17.53 0,9.67 7.85,17.53 17.53,17.53 9.68,0 17.53,-7.86 17.53,-17.53"
         style="fill:#ffffff;fill-opacity:1;fill-rule:nonzero;stroke:none"
         id="path116" /><path
         d="m 820.488,2019.79 c -83.203,0 -150.652,67.46 -150.652,150.66 0,83.21 67.449,150.66 150.652,150.66 83.203,0 150.653,-67.45 150.653,-150.66 0,-83.2 -67.45,-150.66 -150.653,-150.66"
         style="fill:#f46f77;fill-opacity:1;fill-rule:nonzero;stroke:none"
         id="path118" /><path
         d="m 749.762,2190.14 v -35.69 c 0,-1.51 1.222,-2.74 2.738,-2.74 h 19.684 l 1.687,-0.59 30.695,-23.98 c 1.797,-1.41 4.426,-0.13 4.426,2.16 v 83.36 c 0,2.23 -2.527,3.53 -4.34,2.22 l -29.726,-21.37 -1.586,-0.51 -20.856,-0.12 c -1.507,-0.01 -2.722,-1.23 -2.722,-2.74"
         style="fill:#ffffff;fill-opacity:1;fill-rule:nonzero;stroke:none"
         id="path120" /><path
         d="m 866.055,2110.2 -2.305,0.88 c -1.422,1.28 -1.539,3.47 -0.27,4.89 17.161,19.14 25.293,38.92 24.18,58.8 -1.676,29.76 -23.687,49.7 -23.898,49.89 -1.434,1.27 -1.559,3.45 -0.289,4.87 1.269,1.43 3.441,1.56 4.871,0.28 0.996,-0.88 24.375,-22.06 26.211,-54.65 1.226,-21.78 -7.5,-43.25 -25.934,-63.8 -0.683,-0.77 -1.625,-1.16 -2.566,-1.16"
         style="fill:#ffffff;fill-opacity:1;fill-rule:nonzero;stroke:none"
         id="path122" /><path
         d="m 847.035,2127.05 c -0.918,0 -1.844,0.37 -2.519,1.09 -1.301,1.39 -1.231,3.58 0.156,4.89 12.172,11.4 18.359,23.83 18.371,36.94 0.023,22.5 -18.184,39.91 -18.371,40.08 -1.387,1.31 -1.457,3.49 -0.156,4.88 1.324,1.39 3.507,1.46 4.882,0.16 0.836,-0.78 20.547,-19.55 20.547,-45.07 0,-15.11 -6.914,-29.26 -20.547,-42.03 l -2.363,-0.94"
         style="fill:#ffffff;fill-opacity:1;fill-rule:nonzero;stroke:none"
         id="path124" /><path
         d="m 830.195,2144.44 -2.457,1.02 c -1.336,1.37 -1.332,3.54 0.024,4.89 21.211,21.02 0.722,44.8 -0.16,45.8 -1.258,1.43 -1.122,3.61 0.308,4.87 1.43,1.27 3.602,1.13 4.863,-0.29 0.262,-0.3 25.735,-29.64 -0.152,-55.29 l -2.426,-1"
         style="fill:#ffffff;fill-opacity:1;fill-rule:nonzero;stroke:none"
         id="path126" /><path
         d="m 1648.59,2019.79 c -83.21,0 -150.65,67.46 -150.65,150.66 0,83.21 67.44,150.66 150.65,150.66 83.21,0 150.66,-67.45 150.66,-150.66 0,-83.2 -67.45,-150.66 -150.66,-150.66"
         style="fill:#f46f77;fill-opacity:1;fill-rule:nonzero;stroke:none"
         id="path128" /><path
         d="m 1649.51,2118.34 c -2.54,0 -4.6,2.06 -4.6,4.6 v 95.02 c 0,2.54 2.06,4.6 4.6,4.6 2.55,0 4.61,-2.06 4.61,-4.6 v -95.02 c 0,-2.54 -2.06,-4.6 -4.61,-4.6"
         style="fill:#ffffff;fill-opacity:1;fill-rule:nonzero;stroke:none"
         id="path130" /><path
         d="m 1694.67,2165.85 h -92.16 c -2.54,0 -4.6,2.06 -4.6,4.6 0,2.55 2.06,4.61 4.6,4.61 h 92.16 c 2.55,0 4.61,-2.06 4.61,-4.61 0,-2.54 -2.06,-4.6 -4.61,-4.6"
         style="fill:#ffffff;fill-opacity:1;fill-rule:nonzero;stroke:none"
         id="path132" /><path
         d="m 967.555,3029.21 c 16.629,14.64 24.949,33.39 24.949,56.23 0,22.83 -8.074,41.44 -24.203,55.85 -16.137,14.39 -38.352,21.59 -66.653,21.59 -25.82,0 -46.796,-6.95 -62.921,-20.85 -16.137,-13.9 -24.207,-32.76 -24.207,-56.59 0,-23.83 8.07,-42.82 24.207,-56.97 16.125,-14.15 37.605,-21.23 64.414,-21.23 26.308,0 47.777,7.32 64.414,21.97 z m 97.925,157.13 c 41.2,-44.44 61.81,-108.35 61.81,-191.76 0,-59.08 -11.05,-109.72 -33.13,-151.92 -22.1,-42.2 -53.25,-74.22 -93.47,-96.06 -40.206,-21.85 -86.635,-32.76 -139.256,-32.76 -27.805,0 -54.36,3.1 -79.676,9.3 -25.324,6.2 -46.918,15.01 -64.789,26.44 l 44.679,88.62 c 25.321,-17.39 57.829,-26.07 97.555,-26.07 44.18,0 79.18,13.03 105,39.1 25.813,26.06 39.717,63.67 41.707,112.82 -31.281,-31.28 -74.469,-46.91 -129.578,-46.91 -33.266,0 -63.555,6.7 -90.855,20.1 -27.309,13.41 -48.907,32.4 -64.786,56.97 -15.894,24.58 -23.832,52.99 -23.832,85.27 0,34.74 8.684,65.27 26.067,91.59 17.371,26.31 41.074,46.55 71.117,60.7 30.035,14.15 63.414,21.22 100.16,21.22 72.981,0 130.067,-22.22 171.277,-66.65"
         style="fill:#ffffff;fill-opacity:1;fill-rule:nonzero;stroke:none"
         id="path134" /><path
         d="m 1381.97,3244.06 v -521.29 h -120.64 v 424.47 h -104.25 v 96.82 h 224.89"
         style="fill:#ffffff;fill-opacity:1;fill-rule:nonzero;stroke:none"
         id="path136" /><path
         d="m 1673.89,3244.06 v -521.29 h -120.64 v 424.47 h -104.26 v 96.82 h 224.9"
         style="fill:#ffffff;fill-opacity:1;fill-rule:nonzero;stroke:none"
         id="path138" /><path
         d="m 735.805,2512.61 v -17.6 H 671.16 v 80.52 h 63.153 v -17.6 h -40.606 v -13.58 h 35.77 v -17.02 h -35.77 v -14.72 h 42.098"
         style="fill:#ffffff;fill-opacity:1;fill-rule:nonzero;stroke:none"
         id="path140" /><path
         d="m 821.152,2495.01 -0.23,42.67 -20.703,-34.74 h -10.121 l -20.59,33.59 v -41.52 h -21.051 v 80.52 h 18.75 l 28.297,-46.47 27.601,46.47 h 18.75 l 0.231,-80.52 h -20.934"
         style="fill:#ffffff;fill-opacity:1;fill-rule:nonzero;stroke:none"
         id="path142" /><path
         d="m 922.832,2512.61 v -17.6 h -64.644 v 80.52 h 63.152 v -17.6 h -40.61 v -13.58 h 35.774 v -17.02 H 880.73 v -14.72 h 42.102"
         style="fill:#ffffff;fill-opacity:1;fill-rule:nonzero;stroke:none"
         id="path144" /><path
         d="m 981.492,2554.48 c -2.375,2.07 -5.906,3.1 -10.586,3.1 H 958.258 V 2534 h 12.648 c 4.68,0 8.211,1.02 10.586,3.05 2.375,2.03 3.567,4.93 3.567,8.69 0,3.75 -1.192,6.67 -3.567,8.74 z m -10.812,-38.07 h -12.422 v -21.4 h -22.774 v 80.52 h 36.805 c 7.285,0 13.613,-1.21 18.981,-3.63 5.367,-2.41 9.51,-5.87 12.42,-10.35 2.92,-4.49 4.37,-9.76 4.37,-15.81 0,-5.83 -1.36,-10.92 -4.08,-15.25 -2.73,-4.33 -6.617,-7.72 -11.675,-10.18 l 17.365,-25.3 h -24.381 l -14.609,21.4"
         style="fill:#ffffff;fill-opacity:1;fill-rule:nonzero;stroke:none"
         id="path146" /><path
         d="m 1074.55,2536.99 h 20.13 v -33.35 c -4.61,-3.3 -9.89,-5.83 -15.88,-7.6 -5.98,-1.76 -11.96,-2.64 -17.94,-2.64 -8.44,0 -16.03,1.78 -22.77,5.35 -6.76,3.56 -12.05,8.52 -15.88,14.89 -3.84,6.37 -5.75,13.58 -5.75,21.63 0,8.05 1.91,15.26 5.75,21.62 3.83,6.37 9.16,11.33 15.99,14.9 6.82,3.56 14.53,5.35 23.12,5.35 7.51,0 14.26,-1.27 20.24,-3.8 5.98,-2.53 10.97,-6.17 14.95,-10.93 l -14.49,-13.11 c -5.44,5.98 -11.96,8.97 -19.55,8.97 -6.9,0 -12.47,-2.09 -16.68,-6.27 -4.22,-4.18 -6.33,-9.76 -6.33,-16.73 0,-4.45 0.96,-8.42 2.88,-11.91 1.92,-3.49 4.6,-6.21 8.05,-8.17 3.45,-1.95 7.4,-2.93 11.85,-2.93 4.37,0 8.47,0.88 12.31,2.65 v 22.08"
         style="fill:#ffffff;fill-opacity:1;fill-rule:nonzero;stroke:none"
         id="path148" /><path
         d="m 1173.81,2512.61 v -17.6 h -64.65 v 80.52 h 63.15 v -17.6 h -40.6 v -13.58 h 35.77 v -17.02 h -35.77 v -14.72 h 42.1"
         style="fill:#ffffff;fill-opacity:1;fill-rule:nonzero;stroke:none"
         id="path150" /><path
         d="m 1263.07,2575.53 v -80.52 h -18.75 l -35.55,42.9 v -42.9 h -22.31 v 80.52 h 18.75 l 35.54,-42.91 v 42.91 h 22.32"
         style="fill:#ffffff;fill-opacity:1;fill-rule:nonzero;stroke:none"
         id="path152" /><path
         d="m 1296.6,2498.75 c -6.72,3.56 -11.99,8.52 -15.82,14.89 -3.84,6.37 -5.75,13.58 -5.75,21.63 0,8.05 1.91,15.26 5.75,21.62 3.83,6.37 9.1,11.33 15.82,14.9 6.71,3.56 14.28,5.35 22.71,5.35 7.36,0 14,-1.31 19.9,-3.91 5.91,-2.61 10.81,-6.37 14.73,-11.28 l -14.5,-13.11 c -5.21,6.29 -11.54,9.43 -18.98,9.43 -4.37,0 -8.26,-0.96 -11.67,-2.88 -3.41,-1.91 -6.06,-4.61 -7.94,-8.1 -1.88,-3.49 -2.82,-7.5 -2.82,-12.02 0,-4.53 0.94,-8.53 2.82,-12.02 1.88,-3.5 4.53,-6.2 7.94,-8.11 3.41,-1.92 7.3,-2.88 11.67,-2.88 7.44,0 13.77,3.14 18.98,9.43 l 14.5,-13.11 c -3.92,-4.91 -8.82,-8.66 -14.73,-11.27 -5.9,-2.61 -12.54,-3.91 -19.9,-3.91 -8.43,0 -16,1.78 -22.71,5.35"
         style="fill:#ffffff;fill-opacity:1;fill-rule:nonzero;stroke:none"
         id="path154" /><path
         d="m 1406.85,2523.88 v -28.87 h -22.78 v 29.21 l -30.71,51.31 h 24.04 l 19.09,-31.98 19.1,31.98 h 22.08 l -30.82,-51.65"
         style="fill:#ffffff;fill-opacity:1;fill-rule:nonzero;stroke:none"
         id="path156" /><path
         d="m 1494.32,2498.75 c -6.72,3.56 -11.99,8.52 -15.82,14.89 -3.84,6.37 -5.75,13.58 -5.75,21.63 0,8.05 1.91,15.26 5.75,21.62 3.83,6.37 9.1,11.33 15.82,14.9 6.71,3.56 14.28,5.35 22.71,5.35 7.36,0 14,-1.31 19.9,-3.91 5.91,-2.61 10.81,-6.37 14.73,-11.28 l -14.5,-13.11 c -5.21,6.29 -11.54,9.43 -18.98,9.43 -4.37,0 -8.26,-0.96 -11.67,-2.88 -3.41,-1.91 -6.06,-4.61 -7.94,-8.1 -1.88,-3.49 -2.82,-7.5 -2.82,-12.02 0,-4.53 0.94,-8.53 2.82,-12.02 1.88,-3.5 4.53,-6.2 7.94,-8.11 3.41,-1.92 7.3,-2.88 11.67,-2.88 7.44,0 13.77,3.14 18.98,9.43 l 14.5,-13.11 c -3.92,-4.91 -8.82,-8.66 -14.73,-11.27 -5.9,-2.61 -12.54,-3.91 -19.9,-3.91 -8.43,0 -16,1.78 -22.71,5.35"
         style="fill:#ffffff;fill-opacity:1;fill-rule:nonzero;stroke:none"
         id="path158" /><path
         d="m 1607.67,2527.45 -10.35,25.76 -10.35,-25.76 z m 6.67,-16.8 h -34.05 l -6.32,-15.64 h -23.24 l 35.54,80.52 h 22.44 l 35.65,-80.52 h -23.69 l -6.33,15.64"
         style="fill:#ffffff;fill-opacity:1;fill-rule:nonzero;stroke:none"
         id="path160" /><path
         d="m 1650.81,2575.53 h 22.77 v -62.46 H 1712 v -18.06 h -61.19 v 80.52"
         style="fill:#ffffff;fill-opacity:1;fill-rule:nonzero;stroke:none"
         id="path162" /><path
         d="m 1720.97,2575.53 h 22.77 v -62.46 h 38.42 v -18.06 h -61.19 v 80.52"
         style="fill:#ffffff;fill-opacity:1;fill-rule:nonzero;stroke:none"
         id="path164" /><path
         d="m 3819.18,3811.02 -202.84,148.63 -25.93,-244.97 -257.81,-26.97 198.02,-198.02 -151.58,-144.47 214.7,-15.78 24.94,-192.72 169.9,143.52 230.16,-143.52 64.33,237.51 254.15,35.71 -222.73,158.49 120.1,211 -193.41,-44.25 -54.39,259.51 -167.61,-183.67"
         style="fill:#ffffff;fill-opacity:1;fill-rule:nonzero;stroke:none"
         id="path166" /><path
         d="m 3819.18,3811.02 c 0,0 3.73,4.35 11.02,12.47 7.37,8.18 18.17,20.17 32.29,35.83 28.37,31.33 70,77.29 123.36,136.23 l 1.67,1.83 0.52,-2.43 c 15.05,-71.17 33.6,-158.89 54.86,-259.4 l -2.11,1.35 c 58.79,13.53 124,28.53 193.36,44.49 l 4.46,1.02 -2.27,-3.98 c -37.07,-65.27 -77.42,-136.32 -119.9,-211.11 l -0.65,2.93 c 70.5,-50.09 145.14,-103.12 222.84,-158.34 l 4.95,-3.52 -6.02,-0.85 c -80.92,-11.4 -166.33,-23.44 -254.14,-35.81 l 2.09,1.84 c -20.49,-75.72 -42.16,-155.83 -64.27,-237.53 l -0.9,-3.37 -2.96,1.85 c -56.68,35.34 -116.73,72.78 -177.55,110.69 -17.62,10.99 -35.17,21.93 -52.63,32.82 l 3.06,0.23 c -57.58,-48.63 -114.29,-96.53 -169.92,-143.51 l -3.62,-3.05 -0.6,4.69 c -8.45,65.47 -16.75,129.76 -24.88,192.72 l 2.31,-2.19 c -73.53,5.44 -145.13,10.73 -214.69,15.87 l -5.47,0.41 3.97,3.78 c 52.22,49.71 102.86,97.91 151.67,144.37 l -0.04,-3.3 c -70.17,70.3 -136.25,136.5 -197.84,198.2 l -3.06,3.06 4.3,0.44 c 94.26,9.75 180.24,18.63 257.85,26.66 l -1.54,-1.54 c 10.32,95.79 19.09,177.18 26.38,244.91 l 0.24,2.19 1.77,-1.3 c 65.37,-48.28 115.81,-85.53 150.02,-110.79 17.04,-12.65 30.01,-22.29 38.84,-28.84 8.75,-6.52 13.23,-10.02 13.23,-10.02 0,0 -4.44,3.05 -13.19,9.34 -8.86,6.41 -21.88,15.82 -38.98,28.19 -34.53,25.11 -85.45,62.12 -151.42,110.08 l 2.01,0.88 c -7.04,-67.75 -15.51,-149.17 -25.46,-245.01 l -0.14,-1.39 -1.4,-0.15 c -77.59,-8.21 -163.53,-17.32 -257.78,-27.3 l 1.24,3.5 c 61.7,-61.59 127.9,-127.68 198.19,-197.84 l 1.67,-1.67 -1.71,-1.63 c -48.76,-46.53 -99.32,-94.79 -151.49,-144.56 l -1.51,4.18 c 69.57,-5.08 141.18,-10.31 214.71,-15.68 l 2.05,-0.16 0.27,-2.04 c 8.17,-62.96 16.5,-127.24 25,-192.72 l -4.22,1.65 c 55.61,46.99 112.32,94.9 169.88,143.54 l 1.44,1.23 1.62,-1.01 c 17.46,-10.89 35.02,-21.83 52.62,-32.82 60.81,-37.92 120.86,-75.37 177.54,-110.72 l -3.87,-1.52 c 22.14,81.69 43.85,161.79 64.38,237.5 l 0.43,1.62 1.66,0.23 c 87.81,12.3 173.23,24.26 254.17,35.6 l -1.07,-4.37 c -77.62,55.31 -152.19,108.44 -222.63,158.64 l -1.65,1.17 1,1.76 c 42.63,74.71 83.11,145.68 120.31,210.88 l 2.19,-2.96 c -69.4,-15.78 -134.64,-30.61 -193.47,-43.99 l -1.75,-0.4 -0.37,1.75 c -20.88,100.6 -39.11,188.39 -53.9,259.61 l 2.18,-0.6 c -54.01,-58.74 -96.14,-104.55 -124.87,-135.79 -14.23,-15.4 -25.13,-27.18 -32.56,-35.22 -7.34,-7.91 -11.12,-11.8 -11.12,-11.8"
         style="fill:#17282f;fill-opacity:1;fill-rule:nonzero;stroke:none"
         id="path168" /><path
         d="m 3786.88,3720.64 -13.43,-194.18 c -1.1,-15.88 -13.87,-28.45 -29.75,-29.3 -16.77,-0.9 -31.3,11.5 -33.05,28.2 l -20.42,195.36 c -1.55,14.79 10.21,27.59 25.09,27.3 l 47.38,-0.94 c 14.13,-0.28 25.16,-12.33 24.18,-26.44"
         style="fill:#f2575d;fill-opacity:1;fill-rule:nonzero;stroke:none"
         id="path170" /><path
         d="m 3693.43,3406.43 c 8.11,-24.89 34.86,-38.5 59.76,-30.4 24.9,8.11 38.51,34.86 30.41,59.76 -8.11,24.9 -34.86,38.51 -59.77,30.41 -24.89,-8.11 -38.5,-34.87 -30.4,-59.77"
         style="fill:#f2575d;fill-opacity:1;fill-rule:nonzero;stroke:none"
         id="path172" /><path
         d="m 3947.44,3720.64 -13.43,-194.18 c -1.1,-15.88 -13.86,-28.45 -29.76,-29.3 -16.76,-0.9 -31.29,11.5 -33.03,28.2 l -20.43,195.36 c -1.56,14.79 10.21,27.59 25.08,27.3 l 47.39,-0.94 c 14.13,-0.28 25.15,-12.33 24.18,-26.44"
         style="fill:#f2575d;fill-opacity:1;fill-rule:nonzero;stroke:none"
         id="path174" /><path
         d="m 3853.99,3406.43 c 8.1,-24.89 34.86,-38.5 59.75,-30.4 24.91,8.11 38.52,34.86 30.41,59.76 -8.1,24.9 -34.85,38.51 -59.75,30.41 -24.9,-8.11 -38.52,-34.87 -30.41,-59.77"
         style="fill:#f2575d;fill-opacity:1;fill-rule:nonzero;stroke:none"
         id="path176" /><path
         d="m 3688.13,1286.7 c -0.59,18.86 -11.95,35.54 -27.69,45.97 -245.97,162.8 -431.34,523.61 -450.04,829.06 -0.49,17.4 -1.04,35.05 -1.62,52.84 l -0.01,0.22 v 0 c -15.36,459.29 -79.62,987.94 -136.27,1107.66 -120.51,254.68 -467.83,285.29 -467.83,285.29 -479.49,34.31 -565.12,-334.13 -613.52,-669.71 -30.11,-208.68 -146.07,-954.16 -146.07,-954.16 l 88.13,-34.11 c 103.83,-307.66 337.62,-556.49 641.51,-670.92 88.39,-33.28 163.22,-46.64 198.35,-18.01 139.6,-141.51 314.34,-248.45 504.57,-306.318 77.44,-23.563 158.61,-39.313 239.2,-31.762 52.32,4.898 107.51,22.18 138.71,64.488 26.89,36.432 30.58,88.542 9.1,128.402 -21.46,39.88 -67,65.46 -112.22,63.07 18.16,58.95 137.74,41.6 135.7,107.99"
         style="fill:#17282f;fill-opacity:1;fill-rule:nonzero;stroke:none"
         id="path178" /><path
         d="m 2776.04,2193.56 c 0,0 175.22,75.29 265.75,92.38 90.53,17.08 722.9,180.1 722.9,180.1 l -652.73,559.36 143.99,175.2 c 0,0 484.85,-289.32 829.56,-519.9 0,0 2.48,-1.28 6.46,-4.41 196.04,-154.28 127.39,-423.16 -73.85,-549.41 -100.22,-62.87 -539.57,-252.39 -624.77,-293.88 -170.12,-82.85 -167.45,-80.09 -167.45,-80.09 l -449.86,440.65"
         style="fill:#f9a78d;fill-opacity:1;fill-rule:nonzero;stroke:none"
         id="path180" /><path
         d="m 2668.47,3472.12 -30,28.59 -324.18,-130.64 c -46.9,-2.59 -84.02,-40.65 -85.44,-87.61 l 2.84,-1056.23 c -0.41,-71.63 13.95,-133.65 57.19,-190.75 l 45.53,-60.11 c 103.81,-137.05 317.35,-125.77 399.54,25.23 5.74,10.56 9.73,19.81 11.45,27.32 1.74,9.41 4.31,15.61 4.83,23.62 9.65,84.98 10.2,158.66 10.2,158.66 5.79,93.3 7.68,131.59 7.7,130.71 0,0 198.55,22.83 252.23,277.69 26.69,126.76 21.66,301.14 14.16,472.76 -10.39,237.51 -175.14,380.99 -366.05,380.76"
         style="fill:#f9a78d;fill-opacity:1;fill-rule:nonzero;stroke:none"
         id="path182" /><path
         d="m 2648.42,2921.91 c -0.26,-17.44 -15.23,-31.59 -33.44,-31.65 -18.17,-0.07 -32.73,13.97 -32.48,31.4 0.27,17.44 15.24,31.61 33.4,31.67 18.22,0.07 32.78,-14 32.52,-31.42"
         style="fill:#17282f;fill-opacity:1;fill-rule:nonzero;stroke:none"
         id="path184" /><path
         d="m 2970.08,2912.75 c -0.26,-17.44 -15.23,-31.59 -33.43,-31.65 -18.18,-0.07 -32.74,13.97 -32.49,31.4 0.27,17.43 15.24,31.61 33.4,31.67 18.22,0.07 32.78,-14 32.52,-31.42"
         style="fill:#17282f;fill-opacity:1;fill-rule:nonzero;stroke:none"
         id="path186" /><path
         d="m 3000.61,3023.48 c -4.31,-4.1 -28.34,15.62 -63.8,17.31 -35.4,2.19 -62.33,-14.75 -65.96,-10.21 -1.8,2.02 2.76,9.56 14.5,17.25 11.56,7.65 30.99,14.68 53.07,13.49 22.08,-1.23 40.25,-10.3 50.51,-19.15 10.48,-8.91 13.79,-16.87 11.68,-18.69"
         style="fill:#17282f;fill-opacity:1;fill-rule:nonzero;stroke:none"
         id="path188" /><path
         d="m 2640.81,3019.8 c -4.71,-3.62 -26.63,18.47 -61.7,23.77 -34.98,5.83 -63.52,-8.25 -66.66,-3.38 -1.57,2.2 3.69,9.24 16.2,15.67 12.29,6.43 32.33,11.43 54.17,7.98 21.83,-3.5 38.97,-14.38 48.28,-24.25 9.48,-9.93 11.97,-18.19 9.71,-19.79"
         style="fill:#17282f;fill-opacity:1;fill-rule:nonzero;stroke:none"
         id="path190" /><path
         d="m 2764.67,2761.71 c -0.07,2.02 22.16,4.72 58.11,7.5 9.09,0.49 17.75,1.85 19.59,7.95 2.46,6.44 -0.83,16.38 -4.69,27.14 -7.42,22.33 -15.18,45.75 -23.33,70.28 -32.26,100.02 -55.13,182.08 -51.08,183.34 4.03,1.27 33.46,-78.78 65.72,-178.8 7.73,-24.65 15.15,-48.15 22.18,-70.63 2.91,-10.46 8.21,-22.43 2.91,-35.77 -2.78,-6.65 -9.67,-11.22 -15.55,-12.5 -5.9,-1.48 -10.99,-1.31 -15.49,-1.36 -36.03,-0.13 -58.34,0.83 -58.37,2.85"
         style="fill:#17282f;fill-opacity:1;fill-rule:nonzero;stroke:none"
         id="path192" /><path
         d="m 2768.13,2340.92 c 0,0 -173.4,-2.48 -339.47,109.02 0,0 77.59,-182.18 335.93,-171.03 l 3.54,62.01"
         style="fill:#f57f62;fill-opacity:1;fill-rule:nonzero;stroke:none"
         id="path194" /><path
         d="m 2515.7,3157.88 c 1.25,10.19 36.82,13.64 76.3,27.83 39.77,13.39 69.78,32.77 77.11,25.56 3.33,-3.48 -0.36,-13.64 -11.51,-25.78 -11.04,-12.1 -30,-25.54 -53.75,-33.83 -23.76,-8.24 -46.96,-9.48 -63.13,-6.86 -16.27,2.61 -25.47,8.28 -25.02,13.08"
         style="fill:#17282f;fill-opacity:1;fill-rule:nonzero;stroke:none"
         id="path196" /><path
         d="m 2976.75,3158.22 c -6.64,-7.74 -30.64,1.84 -60,3.71 -29.27,2.89 -54.51,-2.69 -59.81,6.02 -2.31,4.21 2.02,12.08 13.26,19.16 11.09,7.06 29.33,12.37 49.47,10.75 20.15,-1.66 37.28,-9.82 47.07,-18.59 9.96,-8.79 12.96,-17.26 10.01,-21.05"
         style="fill:#17282f;fill-opacity:1;fill-rule:nonzero;stroke:none"
         id="path198" /><path
         d="m 2235.32,2831.7 c 0,0 181.6,-56.52 284.35,391.66 35.15,153.25 177.21,277.35 177.21,277.35 l -57.62,17.34 c 0,0 -358.09,-100.89 -364.12,-105.41 -6.02,-4.51 -90.35,-185.2 -90.35,-185.2 l 50.53,-395.74"
         style="fill:#17282f;fill-opacity:1;fill-rule:nonzero;stroke:none"
         id="path200" /><path
         d="m 2280.07,2848.39 c 0.91,19.13 -18.94,65.34 -37.69,69.25 -50.06,10.39 -141.21,10.89 -148.48,-117.2 -9.94,-175.11 167.92,-148.97 168.52,-143.96 0.46,3.91 14.49,125.84 17.65,191.91"
         style="fill:#f9a78d;fill-opacity:1;fill-rule:nonzero;stroke:none"
         id="path202" /><path
         d="m 2212.69,2725.85 c -0.74,0.61 -3.18,-1.95 -8.46,-4.02 -5.16,-2.02 -13.9,-3.13 -22.83,0.82 -18.12,7.84 -32.03,38.09 -31.09,69.7 0.46,15.96 4.66,30.95 11.02,43.2 6.07,12.5 14.86,20.99 24.28,22.11 9.38,1.62 15.65,-4.34 17.52,-9.38 2.07,-5.04 0.76,-8.47 1.67,-8.81 0.46,-0.48 3.93,2.71 2.92,10.01 -0.52,3.53 -2.33,7.77 -6.27,11.38 -4,3.65 -10.08,5.74 -16.61,5.41 -13.56,-0.17 -26.42,-11.9 -33.4,-25.34 -7.74,-13.47 -12.84,-30.29 -13.34,-48.21 -0.89,-35.35 15.3,-69.39 40.2,-78.15 12.13,-3.9 22.62,-0.78 28.16,3.06 5.67,4 6.81,7.88 6.23,8.22"
         style="fill:#f57f62;fill-opacity:1;fill-rule:nonzero;stroke:none"
         id="path204" /><path
         d="m 2358.48,2917.41 c -0.07,0.58 9.66,0.62 26.24,5.29 16.49,4.62 39.64,15.38 62.35,36.19 11.3,10.4 22.43,23.14 32.53,38.1 9.93,15.06 18.83,32.31 26.46,51.18 15.51,37.72 25.45,81.69 37.72,127.34 12.3,45.68 25.64,88.81 40.28,127.15 14.45,38.42 30.47,71.86 45.63,98.94 15.23,27.06 29.55,47.76 40.11,61.53 5.17,6.96 9.68,11.99 12.55,15.53 2.94,3.49 4.54,5.27 4.67,5.17 0.12,-0.11 -1.24,-2.09 -3.94,-5.76 -2.64,-3.72 -6.89,-8.92 -11.83,-16.02 -10.06,-14.04 -23.9,-34.92 -38.68,-62.04 -14.71,-27.15 -30.33,-60.53 -44.5,-98.86 -14.34,-38.26 -27.52,-81.27 -39.79,-126.85 -12.25,-45.51 -22.35,-89.68 -38.25,-127.76 -7.83,-19.05 -16.98,-36.46 -27.22,-51.71 -10.43,-15.13 -21.9,-27.97 -33.53,-38.39 -23.39,-20.85 -47.22,-31.35 -64.08,-35.48 -16.96,-4.2 -26.72,-3.55 -26.72,-3.55"
         style="fill:#17282f;fill-opacity:1;fill-rule:nonzero;stroke:none"
         id="path206" /><path
         d="m 2119.16,2170.25 c -0.2,-0.03 -0.84,2.84 -1.9,8.46 -1.09,6.16 -2.56,14.41 -4.42,24.89 -3.72,22.48 -9.02,54.48 -15.75,95.08 l 4.23,0.6 c 0.88,-6.36 1.86,-13.4 2.87,-20.68 l -0.19,0.65 c 1.11,-2.37 2.38,-5.09 3.67,-7.86 l -4.39,-1.62 c -20.75,71.65 -43.49,167.99 -56.16,281.89 -6.54,56.9 -10.25,118.12 -10.69,182.35 0.61,64.01 0.15,131.99 17.31,199.9 7.06,28.06 17.82,54.98 31.85,79.49 13.99,24.53 30.71,46.84 48.42,67.43 35.61,41.14 73.97,76.51 109,111.64 70.67,69.54 134.35,132.18 188,184.96 53.39,52.13 96.75,94.45 127.23,124.21 14.81,14.21 26.47,25.41 34.88,33.48 3.77,3.5 6.8,6.32 9.21,8.56 2.11,1.9 3.23,2.82 3.33,2.73 0.1,-0.1 -0.84,-1.22 -2.76,-3.31 -2.26,-2.39 -5.1,-5.39 -8.65,-9.13 -8.14,-8.32 -19.46,-19.87 -33.82,-34.54 -30.05,-30.19 -72.8,-73.13 -125.44,-126.01 -53.31,-53.13 -116.58,-116.19 -186.8,-186.18 -34.89,-35.27 -73.18,-70.83 -108.23,-111.5 -35.05,-40.49 -65.22,-88.41 -78.49,-143.83 -16.81,-66.41 -16.54,-134.12 -17.28,-197.87 0.29,-63.94 3.76,-124.91 9.99,-181.6 12.04,-113.5 33.89,-209.66 53.61,-281.39 l -4.39,-1.61 c -1.25,2.78 -2.49,5.52 -3.56,7.9 l -0.14,0.33 -0.05,0.33 c -0.9,7.29 -1.77,14.35 -2.57,20.72 l 4.23,0.61 c 5.88,-40.73 10.51,-72.83 13.77,-95.38 1.4,-10.56 2.5,-18.86 3.32,-25.06 0.69,-5.67 0.95,-8.61 0.76,-8.64"
         style="fill:#33535f;fill-opacity:1;fill-rule:nonzero;stroke:none"
         id="path208" /><path
         d="m 1981.29,2979.79 c -0.25,0.13 0.82,2.67 3.07,7.41 2.74,5.52 6.12,12.31 10.22,20.56 8.87,17.84 22.88,43.09 41.24,73.65 18.25,30.64 41.68,66.1 69.28,104.36 27.94,37.99 60.25,78.63 96.53,119.23 36.53,40.41 73.51,76.86 108.33,108.68 35.11,31.52 67.89,58.59 96.41,79.98 28.44,21.5 52.04,38.12 68.85,48.83 7.76,4.96 14.16,9.03 19.35,12.34 4.47,2.75 6.89,4.08 7.04,3.85 0.15,-0.23 -1.97,-2.02 -6.15,-5.19 -4.96,-3.64 -11.06,-8.11 -18.47,-13.56 -16.23,-11.47 -39.27,-28.75 -67.15,-50.74 -27.98,-21.89 -60.24,-49.29 -94.91,-80.94 -34.38,-31.98 -71.01,-68.39 -107.35,-108.6 -36.1,-40.39 -68.41,-80.67 -96.55,-118.25 -27.79,-37.84 -51.61,-72.81 -70.4,-102.96 -18.91,-30.07 -33.63,-54.81 -43.32,-72.17 -4.62,-7.95 -8.43,-14.5 -11.52,-19.82 -2.71,-4.48 -4.26,-6.78 -4.5,-6.66"
         style="fill:#33535f;fill-opacity:1;fill-rule:nonzero;stroke:none"
         id="path210" /><path
         d="m 2223.66,2226.23 -0.66,0.22 0.66,-0.22"
         style="fill:#33535f;fill-opacity:1;fill-rule:nonzero;stroke:none"
         id="path212" /><path
         d="m 2223,2226.45 -1.76,0.58 1.76,-0.58"
         style="fill:#33535f;fill-opacity:1;fill-rule:nonzero;stroke:none"
         id="path214" /><path
         d="m 3540.05,12.5586 -251.03,765.1794 -19.79,727.252 c -6.18,125.39 -15.4,308.77 -15.4,308.77 -81.9,256.2 -342.32,472.52 -342.32,472.52 l -147.79,-22.08 c -5.66,-159.9 -249.69,-305.11 -425.19,-199.12 -64.91,46.58 -114.87,161.15 -114.87,161.15 L 1925.41,2082 2130.21,618.23 c 0,0 -201.97,-376.851 -201.97,-605.6714 h 1611.81"
         style="fill:#33535f;fill-opacity:1;fill-rule:nonzero;stroke:none"
         id="path216" /><path
         d="m 2221.24,2227.03 -1.72,0.57 1.72,-0.57"
         style="fill:#33535f;fill-opacity:1;fill-rule:nonzero;stroke:none"
         id="path218" /><path
         d="m 2219.52,2227.6 c -1.33,0.44 -1.02,0.34 0,0"
         style="fill:#33535f;fill-opacity:1;fill-rule:nonzero;stroke:none"
         id="path220" /><path
         d="m 2575.15,2047.64 0.06,1.45 102.29,57.67 c -29.4,-25 -64.49,-45.45 -102.35,-59.12"
         style="fill:#ba7562;fill-opacity:1;fill-rule:nonzero;stroke:none"
         id="path222" /><path
         d="m 2407.99,565.41 c -32.26,0 -64.6,5.559 -94.72,16.68 -94.31,34.82 -166.36,117.238 -203.03,210.832 l 414.75,127.93 50.16,1126.788 c 37.86,13.67 72.95,34.12 102.35,59.12 l 5.86,3.31 37.44,-316.78 c 25.29,-274.41 2.31,-550.94 -29.28,-824.7 -6.22,-53.899 -12.79,-107.86 -24.44,-160.86 -13.25,-60.281 -34.13,-121.011 -75.77,-166.582 -46.15,-50.507 -114.58,-75.75 -183.32,-75.738"
         style="fill:#20353d;fill-opacity:1;fill-rule:nonzero;stroke:none"
         id="path224" /><path
         d="m 2766.62,2269.92 c 0,0 217.31,54.58 394.01,59.26 l 293.08,73.97 50.05,-523.62 -279.42,-179.33 -457.72,569.72"
         style="fill:#33535f;fill-opacity:1;fill-rule:nonzero;stroke:none"
         id="path226" /><path
         d="m 2249.74,1464.75 -514.56,-258.17 c 0,0 -142.53,763.6 188.76,875.42 l 19.15,-108.46 306.65,-508.79"
         style="fill:#33535f;fill-opacity:1;fill-rule:nonzero;stroke:none"
         id="path228" /><path
         d="m 3237.54,2121.69 c 0.1,0 0.25,-1.17 0.45,-3.46 0.21,-2.56 0.47,-5.92 0.8,-10.16 0.61,-9.26 1.46,-22.38 2.55,-39.11 2.18,-33.96 4.77,-83.14 7.89,-143.91 6.11,-121.56 13.25,-289.52 20.03,-475.07 6.81,-185.63 12.08,-353.67 15.5,-475.32 1.54,-60.59 2.79,-109.73 3.67,-144.07 0.31,-16.762 0.54,-29.899 0.71,-39.18 0.02,-4.25 0.03,-7.621 0.03,-10.191 -0.01,-2.297 -0.06,-3.481 -0.15,-3.481 -0.09,0 -0.22,1.172 -0.37,3.473 -0.15,2.559 -0.33,5.918 -0.57,10.18 -0.39,9.257 -0.96,22.39 -1.67,39.14 -1.27,34.328 -3.09,83.438 -5.33,144.008 -4.37,121.891 -10.38,289.771 -17.02,475.241 -7.22,185.39 -13.76,353.23 -18.51,475.1 -2.62,60.55 -4.74,109.65 -6.24,143.98 -0.66,16.74 -1.19,29.88 -1.57,39.16 -0.12,4.25 -0.21,7.61 -0.27,10.18 -0.04,2.3 -0.01,3.48 0.07,3.49"
         style="fill:#17282f;fill-opacity:1;fill-rule:nonzero;stroke:none"
         id="path230" /><path
         d="m 1735.18,1206.58 c -0.04,0.08 0.66,0.54 2.07,1.34 1.68,0.92 3.75,2.05 6.28,3.44 5.96,3.12 14.1,7.39 24.39,12.79 21.7,11.1 52.4,26.83 90.17,46.16 76.7,38.7 182,91.84 298.33,150.54 21.42,10.74 42.48,21.29 62.54,31.35 l -1.24,-3.23 c -10.16,26.81 -18.84,52.86 -31.18,76.43 -11.55,24.18 -20.5,48.15 -29.16,70.77 -17.02,45.3 -34.64,84.73 -49.07,117.78 -14.53,33.03 -25.8,59.72 -33.1,78.28 -3.62,9.28 -6.37,16.49 -8.1,21.41 -1.76,4.91 -2.61,7.51 -2.46,7.57 0.15,0.06 1.3,-2.42 3.35,-7.22 2.2,-5.18 5.17,-12.19 8.93,-21.06 7.82,-18.32 19.55,-44.75 34.49,-77.59 14.85,-32.85 32.86,-72.22 50.21,-117.53 8.79,-22.55 17.86,-46.44 29.34,-70.25 12.5,-23.64 21.48,-50.26 31.55,-76.73 l 0.83,-2.19 -2.08,-1.04 c -20.06,-10.08 -41.1,-20.65 -62.52,-31.41 -116.59,-58.16 -222.13,-110.82 -299.01,-149.17 -38.08,-18.72 -69.03,-33.94 -90.91,-44.69 -10.48,-5.03 -18.77,-9 -24.83,-11.91 -2.63,-1.2 -4.77,-2.18 -6.51,-2.98 -1.49,-0.64 -2.27,-0.94 -2.31,-0.86"
         style="fill:#17282f;fill-opacity:1;fill-rule:nonzero;stroke:none"
         id="path232" /><path
         d="m 2806.32,2675.7 c -19.71,13.7 -43.1,22.07 -67.04,23.99 -7.53,0.6 -15.33,0.53 -22.31,-2.33 -10.56,-4.34 -17.77,-14.6 -21.18,-25.48 -3.43,-10.88 -3.61,-22.48 -3.75,-33.88 -0.06,-4.34 -0.07,-8.88 1.97,-12.72 3.73,-7.03 12.74,-9.07 20.68,-9.73 27.03,-2.27 54.64,2.8 79.09,14.54"
         style="fill:#f57f62;fill-opacity:1;fill-rule:nonzero;stroke:none"
         id="path234" /><path
         d="m 1800.64,1239.43 c 105.12,-244.399 305.02,-492.461 428.21,-537.852 183.55,-67.637 335.49,-34.008 405.82,189.781 70.33,223.791 25.27,1217.971 25.27,1217.971 l -306.02,17.55 -56.67,-856.55 c 0,0 -33.8,66.5 -93.3,171.46"
         style="fill:#f9a78d;fill-opacity:1;fill-rule:nonzero;stroke:none"
         id="path236" /><path
         d="m 3111.96,3025.4 -77.02,56.17 -11.81,96.62 c 0,0 -139.22,-3.6 -147.74,71 0,0 -80.28,-21.32 -76.37,57.54 0,0 -40.85,27.71 -25.93,53.28 14.91,25.58 130.23,63.62 136.62,65.76 6.4,2.12 81.78,18.06 81.78,18.06 l -22.33,24.87 -59.67,-6.39 c 0,0 -36.23,-34.1 -66.07,-38.36 -29.84,-4.26 -31.97,8.52 -31.97,8.52 0,0 -34.1,36.23 10.65,72.46 44.76,36.24 102.31,49.02 132.14,51.16 29.85,2.13 69.85,-55.38 69.85,-55.38 l 32.46,-57.58 c 0,0 63.93,8.52 85.24,-40.49 v -34.1 c 0,0 46.9,6.39 66.08,-49.02 l 12.78,-49.02 c 0,0 55.41,-72.46 57.55,-102.3"
         style="fill:#f9a78d;fill-opacity:1;fill-rule:nonzero;stroke:none"
         id="path238" /><path
         d="m 3278.2,3168.2 c -0.22,-0.03 -0.46,2.64 -1.82,7.57 -1.4,4.94 -4.31,12.03 -8.83,20.97 -9.22,17.77 -25.09,42.79 -47.93,72.97 l -0.15,0.21 -0.07,0.26 c -3.89,14.64 -8.28,31.16 -13.01,48.96 l 0.03,-0.12 c -4.24,12.23 -11.24,24.71 -22.32,34.11 -10.96,9.26 -26.48,14.9 -42.05,13.59 l -2.07,-0.17 -0.01,1.99 c -0.03,10.51 -0.06,22.15 -0.1,34.1 l 0.15,-0.77 c -6.17,13.78 -17.7,25.94 -33.02,32.17 -15.09,6.48 -32.83,8.6 -50.17,6.95 l -1.47,-0.14 -0.7,1.22 c -10.2,18.02 -21.23,37.5 -32.57,57.52 l 0.12,-0.18 c -6.91,9.6 -14.71,18.98 -23.18,27.79 -8.55,8.68 -17.94,17.07 -28.83,22.64 -5.53,2.72 -11.24,4.14 -17.27,3.71 -6.32,-0.48 -12.68,-1.43 -19.03,-2.51 -12.7,-2.28 -25.42,-5.49 -37.96,-9.65 -25.04,-8.32 -49.63,-20.43 -71.06,-37.53 -10.67,-8.28 -19.73,-19.19 -22.56,-32.29 -2.61,-13.02 2.29,-27.18 11.01,-37.32 l 0.43,-0.51 0.24,-0.84 c 0.62,-2.27 4.14,-5.02 7.85,-5.91 3.79,-1.11 8.03,-1.36 12.27,-1.27 8.63,0.28 17.02,2.08 25.12,5.61 16.18,7.05 31.15,17.91 45.02,29.79 1.15,1.04 2.32,2.08 3.44,3.09 l 0.67,0.6 0.84,0.09 c 20.1,2.15 39.99,4.28 59.67,6.39 l 1.33,0.14 0.89,-0.99 c 7.49,-8.35 14.93,-16.64 22.32,-24.88 l 2.96,-3.31 -4.35,-0.95 c -26.23,-5.78 -52.09,-11.48 -77.54,-17.08 -24.97,-7.36 -48.95,-16.77 -72.19,-26.22 -11.62,-4.78 -22.93,-9.95 -33.86,-15.48 -10.81,-5.59 -21.7,-11.54 -29.91,-19.53 -3.77,-3.97 -6.13,-9.15 -6.21,-14.52 -0.13,-5.38 1.82,-10.76 4.62,-15.59 5.82,-9.65 14.43,-17.72 23.39,-24.23 l 0.96,-0.7 0.05,-1.34 c 0.18,-4.95 -0.09,-9.93 0.43,-14.77 0.93,-4.75 1.21,-9.68 3.21,-14.02 2.98,-8.96 8.78,-16.86 16.79,-21.45 16.03,-9.35 36.04,-8.82 53.08,-5.14 l 2.4,0.52 0.24,-2.32 c 1.67,-16.47 11.38,-30.52 23.84,-39.71 12.45,-9.39 26.81,-15.19 40.86,-19.35 28.31,-8.09 55.97,-10.5 80.89,-10.57 l 1.48,-0.01 0.16,-1.41 c 4.5,-38.27 8.25,-70.19 11.37,-96.67 l -0.47,0.8 c 24.8,-18.39 43.9,-32.54 57,-42.26 6.27,-4.72 11.1,-8.37 14.54,-10.97 3.25,-2.48 4.8,-3.88 4.8,-3.88 0,0 -1.8,1.06 -5.16,3.38 -3.53,2.49 -8.47,5.97 -14.89,10.49 -13.26,9.52 -32.58,23.38 -57.66,41.36 l -0.4,0.3 -0.07,0.5 c -3.35,26.44 -7.4,58.33 -12.25,96.56 l 1.64,-1.41 c -25.33,-0.12 -53.11,2.12 -82.03,10.19 -14.35,4.15 -29.11,9.98 -42.22,19.76 -13.1,9.5 -23.79,24.71 -25.63,42.41 l 2.64,-1.8 c -9.2,-2.18 -18.58,-3.04 -28.23,-2.53 -9.58,0.56 -19.5,2.72 -28.24,7.96 -8.9,5.06 -15.51,13.97 -18.76,23.7 -2.17,4.78 -2.51,9.97 -3.5,15.07 -0.56,5.12 -0.32,10.3 -0.51,15.5 l 1.02,-2.03 c -9.57,6.95 -18.39,15.09 -24.86,25.66 -3.09,5.31 -5.44,11.49 -5.32,18.09 0.09,6.62 2.95,12.97 7.52,17.78 9.17,8.92 20.12,14.78 31.14,20.55 11.09,5.64 22.5,10.88 34.19,15.71 23.39,9.57 47.41,19.04 72.52,26.47 25.61,5.68 51.66,11.44 78.05,17.29 l -1.38,-4.26 c -7.4,8.24 -14.84,16.52 -22.34,24.87 l 2.21,-0.85 c -19.68,-2.11 -39.57,-4.24 -59.67,-6.39 l 1.5,0.68 c -1.18,-1.05 -2.38,-2.13 -3.59,-3.21 -14.21,-12.15 -29.36,-23.22 -46.41,-30.65 -8.48,-3.73 -17.9,-5.76 -27,-6.01 -4.6,-0.1 -9.28,0.14 -13.91,1.5 -4.49,1.44 -9.57,3.75 -11.46,10.01 l 0.67,-1.35 c -9.89,11.5 -15.17,26.89 -12.28,41.88 1.57,7.37 5.03,14.05 9.24,20.02 2.32,2.78 4.61,5.62 7.16,8.15 2.68,2.36 5.25,4.92 8.02,7.09 22.04,17.53 47.17,29.82 72.68,38.25 12.77,4.21 25.71,7.45 38.67,9.75 6.49,1.08 12.97,2.04 19.48,2.52 6.88,0.53 13.91,-1.27 19.77,-4.22 11.78,-6.09 21.32,-14.78 30.07,-23.69 8.66,-9.06 16.47,-18.51 23.57,-28.43 l 0.06,-0.08 0.06,-0.1 c 11.26,-20.07 22.22,-39.59 32.35,-57.65 l -2.16,1.08 c 18.33,1.67 36.4,-0.59 52.37,-7.47 16.11,-6.62 28.52,-19.75 34.93,-34.39 l 0.17,-0.37 v -0.4 c -0.04,-11.95 -0.07,-23.59 -0.1,-34.1 l -2.08,1.81 c 17.05,1.33 33.07,-4.79 44.71,-14.65 11.65,-10.02 18.78,-23.09 23.04,-35.68 l 0.02,-0.07 0.02,-0.05 c 4.56,-17.84 8.8,-34.39 12.56,-49.08 l -0.23,0.46 c 22.63,-30.54 38.2,-55.85 47.1,-73.94 4.35,-9.09 7.07,-16.33 8.28,-21.39 1.16,-5.06 1.15,-7.75 1.15,-7.75"
         style="fill:#f57f62;fill-opacity:1;fill-rule:nonzero;stroke:none"
         id="path240" /><path
         d="m 3141.13,3128.98 c -0.61,-0.55 -5.74,4.74 -15.26,11.62 -9.46,6.92 -23.59,15 -40.42,21.19 -16.99,5.95 -32.54,11.33 -44,13.43 -11.49,2.19 -18.9,1.96 -18.93,2.81 -0.05,0.58 7.38,2.15 19.49,0.84 12.16,-1.28 28,-6.15 45.26,-12.2 17.3,-6.35 31.73,-15.28 40.88,-23.17 9.22,-7.87 13.46,-14.13 12.98,-14.52"
         style="fill:#f57f62;fill-opacity:1;fill-rule:nonzero;stroke:none"
         id="path242" /><path
         d="m 3163.66,3269.25 c 0.01,-0.36 -4.12,-0.83 -11.58,-1.37 -8.57,-0.49 -19.14,-1.09 -31.61,-1.8 -26.69,-1.29 -63.57,-2.71 -104.3,-3.96 -20.32,-0.55 -39.66,-1.08 -57.44,-1.56 -17.63,-0.18 -33.39,-0.99 -46.58,-2.66 -13.17,-1.58 -23.67,-3.86 -30.73,-6.07 -7.07,-2.15 -10.73,-4.06 -10.95,-3.68 -0.15,0.23 3.25,2.79 10.28,5.6 7.01,2.85 17.59,5.73 30.9,7.8 13.26,2.16 29.29,3.36 46.99,3.81 17.78,0.61 37.13,1.27 57.43,1.96 40.74,1.25 77.63,2.09 104.34,2.44 12.49,0.06 23.06,0.1 31.64,0.14 7.47,-0.08 11.6,-0.3 11.61,-0.65"
         style="fill:#f57f62;fill-opacity:1;fill-rule:nonzero;stroke:none"
         id="path244" /><path
         d="m 3099.53,3358.93 c 0.04,-0.36 -4.14,-1.18 -11.73,-2.36 -8.66,-1.3 -19.42,-2.9 -32.14,-4.8 -27.13,-4.02 -64.55,-9.87 -105.68,-17.45 -41.15,-7.61 -78.2,-15.51 -104.97,-21.45 -12.56,-2.77 -23.17,-5.11 -31.73,-6.99 -7.5,-1.61 -11.7,-2.33 -11.79,-1.99 -0.1,0.35 3.92,1.74 11.29,3.95 7.35,2.23 18.07,5.19 31.37,8.61 26.61,6.87 63.63,15.37 104.88,22.99 41.24,7.61 78.86,12.89 106.15,15.98 13.65,1.55 24.72,2.62 32.38,3.16 7.67,0.56 11.93,0.71 11.97,0.35"
         style="fill:#f57f62;fill-opacity:1;fill-rule:nonzero;stroke:none"
         id="path246" /><path
         d="m 2972.88,3506.09 c 1.3,0.45 5,-7.96 4.41,-19.02 -0.52,-11.05 -5.02,-19.06 -6.27,-18.48 -1.4,0.54 0.63,8.66 1.07,18.74 0.56,10.08 -0.65,18.36 0.79,18.76"
         style="fill:#f57f62;fill-opacity:1;fill-rule:nonzero;stroke:none"
         id="path248" /><path
         d="m 2022.24,2831.39 c 84.6,-112.04 304.84,-436.31 394.58,-552.36 18.91,-24.46 73.98,-15.41 98.27,3.71 57.8,45.48 159.02,124.47 219.39,167.8 25.58,18.36 30.87,54.2 11.66,79.15 l -429.11,557.44 c -19.88,25.81 -57.57,29.11 -81.63,7.15 l -206.24,-188.31 c -21.2,-19.37 -24.23,-51.66 -6.92,-74.58"
         style="fill:#33535f;fill-opacity:1;fill-rule:nonzero;stroke:none"
         id="path250" /><path
         d="m 2346.14,1138.82 -48.89,131.51 56.67,856.55 c 0,0 -112.87,205.68 -125.41,250.83 -12.54,45.15 -15.69,175.99 -15.69,175.99 l 78.86,-91.52 c 0,0 2.18,157.29 2.18,209.97 0,0 11.26,197.77 13.19,225.19 1.92,27.41 29.71,42.18 47.64,42.18 17.92,0 35.3,-32.69 35.3,-32.69 l 24.14,-323.44 c 0,0 39.75,170.08 54.81,192.65 15.05,22.58 67.03,33.35 102.15,30.84 l 1.04,-0.08 c 27.27,-2.48 36.13,-38.18 13.69,-53.87 l -46.3,-32.39 -17.54,-162.23 c 0,0 42.64,140.46 65.21,158.02 22.58,17.56 62.72,0 70.24,-20.06 7.53,-20.07 -20.07,-60.2 -20.07,-60.2 l -7.52,-100.33 c 0,0 30.1,42.64 44.89,65.21 14.79,22.57 52.93,0 57.54,-10.03 4.62,-10.04 -27.19,-118.29 -27.19,-118.29 l -45.14,-363.3 14.21,-523.08"
         style="fill:#f9a78d;fill-opacity:1;fill-rule:nonzero;stroke:none"
         id="path252" /><path
         d="m 2674.15,1586.25 c 0,0 -0.23,3.05 -0.47,9.02 -0.22,6.09 -0.53,14.96 -0.95,26.6 -0.73,23.53 -1.83,58.15 -3.23,102.96 -2.62,89.89 -6.43,220.62 -11.2,384.45 l -0.01,0.12 0.02,0.13 c 13.23,107.43 28.24,229.34 44.74,363.34 l 0.02,0.17 0.05,0.16 c 5.83,20.15 11.54,40.74 16.89,61.74 2.65,10.5 5.28,21.11 7.48,31.85 1.11,5.36 2.08,10.76 2.78,16.15 0.22,2.64 0.39,5.45 0.02,7.13 -0.97,1.91 -2.98,3.83 -4.9,5.56 -8.22,6.74 -18.71,11.7 -29.31,12.67 -5.27,0.42 -10.64,-0.56 -14.72,-3.59 -4.01,-2.85 -6.73,-8.05 -10.14,-12.74 -13.02,-18.94 -26.21,-38.13 -39.55,-57.53 l -4.69,-6.84 0.61,8.31 c 2.31,31.04 4.87,65.42 7.46,100.33 l 0.05,0.59 0.35,0.55 c 6.85,10.41 13.04,21.66 17.31,33.47 2.06,5.89 3.69,12.06 3.55,18.04 0,5.94 -2.93,11.25 -7.18,15.72 -8.6,8.84 -20.82,14.46 -33.24,16.13 -12.24,1.73 -26.18,-1.79 -32.7,-12.7 -7.23,-10.65 -12.78,-22.91 -18.05,-35.15 -5.19,-12.31 -10.13,-24.84 -14.74,-37.57 -9.32,-25.41 -17.91,-51.41 -26.06,-77.72 l -4.81,0.98 c 5.48,50.95 11.44,106.17 17.48,162.22 l 0.12,1.15 0.94,0.65 c 14.54,10.18 29.14,20.4 43.81,30.67 7.43,4.61 12.51,11.42 13.77,19.73 1.21,8.12 -1.2,16.92 -6.84,22.95 -5.57,6.42 -13.79,8.64 -22.73,8.6 -8.92,0.31 -17.9,-0.17 -26.83,-1.22 -17.77,-2.21 -35.75,-6.35 -51.52,-14.76 -7.76,-4.29 -14.93,-9.81 -18.58,-17.65 -3.79,-7.96 -6.73,-16.8 -9.58,-25.53 -5.62,-17.54 -10.65,-35.42 -15.49,-53.4 -9.68,-35.97 -18.73,-72.43 -27.43,-109.19 l -3.86,-16.38 -1.26,16.78 c -3.25,43.62 -6.75,90.38 -10.26,137.47 -4.67,62.61 -9.29,124.65 -13.86,185.96 l 0.29,-1.02 c -5.74,10.07 -12.78,20.14 -21.79,26.92 -8.78,7.45 -21.03,3.92 -31.23,-0.82 -10.16,-5.05 -18.85,-13.44 -22.7,-23.92 -2.01,-5.24 -2.45,-10.69 -2.72,-16.75 l -1.04,-17.72 c -2.78,-47.2 -5.52,-93.93 -8.23,-140.13 -1.2,-23.11 -3.09,-46.06 -3.68,-68.93 -0.24,-22.88 -0.48,-45.63 -0.72,-68.24 -0.49,-45.21 -0.97,-89.85 -1.43,-133.87 l -0.07,-6.54 -4.27,4.96 c -26.7,31.01 -52.95,61.49 -78.83,91.55 l 4.25,1.63 c 1.19,-40.62 3.16,-80.71 6.92,-119.91 2.12,-19.52 4.06,-39.15 9.27,-57.49 6.06,-18.06 14.45,-35.56 22.55,-52.75 33.24,-68.65 68.15,-133.59 101.82,-195.68 l 0.3,-0.56 -0.04,-0.62 c -26.73,-395.06 -47.22,-697.9 -57.94,-856.47 l -0.06,0.36 c 16.17,-44.05 28.25,-76.94 36.33,-98.94 3.95,-10.9 6.91,-19.07 8.93,-24.64 1.95,-5.47 2.82,-8.23 2.82,-8.23 0,0 -1.15,2.65 -3.24,8.07 -2.11,5.53 -5.21,13.66 -9.34,24.49 -8.25,21.93 -20.6,54.73 -37.12,98.65 l -0.07,0.17 0.02,0.19 c 10.26,158.58 29.85,461.49 55.4,856.63 l 0.26,-1.16 c -33.8,62.11 -68.79,126.98 -102.21,195.76 -8.17,17.32 -16.54,34.63 -22.87,53.41 -5.43,19.06 -7.34,38.67 -9.5,58.34 -3.83,39.4 -5.84,79.51 -7.06,120.27 l -0.21,6.8 4.45,-5.17 c 25.91,-30.03 52.19,-60.49 78.91,-91.48 l -4.34,-1.57 c 0.44,44.04 0.89,88.69 1.34,133.92 0.23,22.61 0.46,45.37 0.68,68.26 0.59,22.88 2.47,45.86 3.65,68.99 2.7,46.25 5.43,93.02 8.18,140.27 l 1.04,17.74 c 0.24,5.74 0.74,12.29 3.02,18.19 4.43,11.97 14.14,21.24 25.25,26.75 5.58,2.78 11.6,4.73 17.92,5.49 3.02,0.34 6.62,0.46 9.9,-0.64 3.32,-0.88 6.08,-2.67 8.74,-4.45 10.2,-7.76 17.18,-17.97 23.34,-28.69 l 0.25,-0.44 0.05,-0.59 c 4.58,-61.32 9.21,-123.35 13.88,-185.97 3.52,-47.08 7,-93.84 10.25,-137.46 l -5.11,0.4 c 8.71,36.82 17.77,73.29 27.48,109.35 4.86,18.03 9.9,35.94 15.58,53.65 2.9,8.85 5.77,17.62 9.91,26.3 4.25,9.03 12.52,15.32 20.69,19.79 16.76,8.91 35.13,13.05 53.39,15.34 9.17,1.08 18.39,1.56 27.61,1.24 8.96,0.17 19.95,-2.59 26.31,-10.28 6.73,-7.24 9.53,-17.54 8.1,-27.15 -0.84,-4.79 -2.55,-9.49 -5.43,-13.46 -2.79,-3.89 -6.81,-7.29 -10.45,-9.66 -14.68,-10.26 -29.29,-20.47 -43.83,-30.64 l 1.07,1.79 c -6.09,-56.05 -12.07,-111.27 -17.6,-162.21 l -4.81,0.98 c 8.21,26.43 16.83,52.44 26.21,77.97 4.64,12.77 9.62,25.37 14.87,37.8 5.37,12.38 10.88,24.66 18.6,36.04 1.69,2.87 4.56,5.55 7.17,7.87 2.89,2.11 6.07,3.7 9.38,4.95 6.7,2.36 13.84,2.64 20.63,1.8 13.55,-1.89 26.45,-7.78 36.07,-17.61 4.71,-4.83 8.49,-11.65 8.45,-18.83 0.13,-7 -1.68,-13.52 -3.84,-19.73 -4.51,-12.41 -10.78,-23.72 -17.89,-34.54 l 0.4,1.14 c -2.64,-34.9 -5.24,-69.28 -7.59,-100.32 l -4.08,1.46 c 13.33,19.35 26.53,38.48 39.54,57.37 l 4.88,7.07 c 1.79,2.36 3.71,5.04 6.36,6.79 5.15,3.79 11.69,4.88 17.62,4.39 11.98,-1.19 22.76,-6.39 31.78,-13.74 2.18,-2.02 4.39,-3.92 5.99,-7.02 1.07,-3.75 0.5,-6.54 0.35,-9.43 -0.73,-5.62 -1.73,-11.11 -2.86,-16.53 -2.24,-10.86 -4.9,-21.49 -7.57,-32.03 -5.4,-21.06 -11.17,-41.65 -17.04,-61.85 l 0.06,0.32 c -16.79,-133.97 -32.08,-255.85 -45.54,-363.25 l 0.01,0.25 c 4.13,-163.85 7.43,-294.6 9.69,-384.49 1.04,-44.83 1.83,-79.45 2.38,-102.99 0.21,-11.64 0.38,-20.51 0.5,-26.6 0.08,-5.98 0,-9.04 0,-9.04"
         style="fill:#f57f62;fill-opacity:1;fill-rule:nonzero;stroke:none"
         id="path254" /><path
         d="m 2297.25,2279.03 c -0.71,-0.02 -1.75,13.55 -2.83,35.52 -1.09,21.97 -2.23,52.34 -3.17,85.89 -0.93,33.56 -1.49,63.95 -1.63,85.95 -0.14,22 0.13,35.61 0.84,35.62 0.73,0.01 1.76,-13.57 2.85,-35.54 1.08,-21.97 2.21,-52.34 3.15,-85.88 0.94,-33.54 1.49,-63.91 1.64,-85.91 0.14,-22 -0.13,-35.62 -0.85,-35.65"
         style="fill:#f57f62;fill-opacity:1;fill-rule:nonzero;stroke:none"
         id="path256" /><path
         d="m 2793.78,2630.09 c 0.14,-0.29 -3.22,-2.41 -9.76,-5.35 -6.55,-2.89 -16.36,-6.53 -29,-9.07 -12.65,-2.5 -27.99,-3.93 -45.22,-1.96 -4.32,0.69 -8.96,1.86 -13.1,4.82 -4.28,2.85 -6.82,8.42 -7.07,13.33 -0.31,9.64 -0.2,18.84 1.06,28.88 1.29,9.86 4.58,19.67 10.58,27.35 5.78,7.83 14.94,13 23.84,13.84 17.65,1.38 32.61,-2.57 44.91,-6.41 12.24,-4.13 21.44,-9.18 27.47,-13.03 6.04,-3.89 9.01,-6.53 8.83,-6.79 -0.5,-0.9 -13.27,8.96 -37.4,16.3 -11.91,3.32 -27.17,6.72 -43.16,5.18 -7.9,-0.94 -15.28,-5.23 -20.43,-12.19 -5.28,-6.87 -8.26,-15.64 -9.49,-24.97 -1.19,-9.22 -1.33,-19.07 -1.13,-27.7 0.07,-8.66 7.93,-12.74 15.85,-13.87 16.22,-2.12 31.46,-1.15 43.81,0.85 24.88,4.18 39.04,11.72 39.41,10.79"
         style="fill:#17282f;fill-opacity:1;fill-rule:nonzero;stroke:none"
         id="path258" /><path
         d="m 3940.85,2411.9 c 0,-0.62 -10.34,-1.43 -27.06,-0.43 -16.7,0.98 -39.75,4.21 -64.37,11.26 -24.62,7.1 -45.88,16.6 -60.55,24.64 -14.7,8.03 -23.03,14.22 -22.69,14.73 0.42,0.71 9.4,-4.34 24.36,-11.44 14.94,-7.12 36.08,-15.93 60.31,-22.93 24.25,-6.94 46.83,-10.69 63.28,-12.59 16.44,-1.93 26.73,-2.42 26.72,-3.24"
         style="fill:#f57f62;fill-opacity:1;fill-rule:nonzero;stroke:none"
         id="path260" /></g></g></svg>
